<svg xmlns="http://www.w3.org/2000/svg" xmlns:xlink="http://www.w3.org/1999/xlink" width="1080" zoomAndPan="magnify" viewBox="0 0 810 602.249986" height="803" preserveAspectRatio="xMidYMid meet" version="1.0"><defs><clipPath id="faae667e83"><path d="M 0.65625 0 L 809.496094 0 L 809.496094 601.5 L 0.65625 601.5 Z M 0.65625 0 " clip-rule="nonzero"/></clipPath><clipPath id="6bcfb2471a"><path d="M 0.65625 56.179688 L 0.65625 545.320312 C 0.65625 576.347656 25.808594 601.5 56.835938 601.5 L 753.160156 601.5 C 784.1875 601.5 809.339844 576.347656 809.339844 545.320312 L 809.339844 56.179688 C 809.339844 25.152344 784.1875 0 753.160156 0 L 56.835938 0 C 25.808594 0 0.65625 25.152344 0.65625 56.179688 Z M 0.65625 56.179688 " clip-rule="nonzero"/></clipPath><clipPath id="efd13b1bb7"><path d="M 101 63 L 709 63 L 709 601.5 L 101 601.5 Z M 101 63 " clip-rule="nonzero"/></clipPath><clipPath id="5c3ff3c4cf"><path d="M 0.65625 56.179688 L 0.65625 545.320312 C 0.65625 576.347656 25.808594 601.5 56.835938 601.5 L 753.160156 601.5 C 784.1875 601.5 809.339844 576.347656 809.339844 545.320312 L 809.339844 56.179688 C 809.339844 25.152344 784.1875 0 753.160156 0 L 56.835938 0 C 25.808594 0 0.65625 25.152344 0.65625 56.179688 Z M 0.65625 56.179688 " clip-rule="nonzero"/></clipPath><clipPath id="57bfd51232"><path d="M 92 127 L 406 127 L 406 601.5 L 92 601.5 Z M 92 127 " clip-rule="nonzero"/></clipPath><clipPath id="c23a3e01e1"><path d="M 0.65625 56.179688 L 0.65625 545.320312 C 0.65625 576.347656 25.808594 601.5 56.835938 601.5 L 753.160156 601.5 C 784.1875 601.5 809.339844 576.347656 809.339844 545.320312 L 809.339844 56.179688 C 809.339844 25.152344 784.1875 0 753.160156 0 L 56.835938 0 C 25.808594 0 0.65625 25.152344 0.65625 56.179688 Z M 0.65625 56.179688 " clip-rule="nonzero"/></clipPath><clipPath id="045ac619b5"><path d="M 1 45 L 102 45 L 102 601.5 L 1 601.5 Z M 1 45 " clip-rule="nonzero"/></clipPath><clipPath id="fa5add04d3"><path d="M 0.65625 56.179688 L 0.65625 545.320312 C 0.65625 576.347656 25.808594 601.5 56.835938 601.5 L 753.160156 601.5 C 784.1875 601.5 809.339844 576.347656 809.339844 545.320312 L 809.339844 56.179688 C 809.339844 25.152344 784.1875 0 753.160156 0 L 56.835938 0 C 25.808594 0 0.65625 25.152344 0.65625 56.179688 Z M 0.65625 56.179688 " clip-rule="nonzero"/></clipPath><clipPath id="e8af8e54c4"><path d="M 16 81 L 714 81 L 714 601.5 L 16 601.5 Z M 16 81 " clip-rule="nonzero"/></clipPath><clipPath id="7c11929b5a"><path d="M 0.65625 56.179688 L 0.65625 545.320312 C 0.65625 576.347656 25.808594 601.5 56.835938 601.5 L 753.160156 601.5 C 784.1875 601.5 809.339844 576.347656 809.339844 545.320312 L 809.339844 56.179688 C 809.339844 25.152344 784.1875 0 753.160156 0 L 56.835938 0 C 25.808594 0 0.65625 25.152344 0.65625 56.179688 Z M 0.65625 56.179688 " clip-rule="nonzero"/></clipPath><clipPath id="01495e2e3d"><path d="M 50 0 L 761 0 L 761 249 L 50 249 Z M 50 0 " clip-rule="nonzero"/></clipPath><clipPath id="20a64b9fdd"><path d="M 0.65625 56.179688 L 0.65625 545.320312 C 0.65625 576.347656 25.808594 601.5 56.835938 601.5 L 753.160156 601.5 C 784.1875 601.5 809.339844 576.347656 809.339844 545.320312 L 809.339844 56.179688 C 809.339844 25.152344 784.1875 0 753.160156 0 L 56.835938 0 C 25.808594 0 0.65625 25.152344 0.65625 56.179688 Z M 0.65625 56.179688 " clip-rule="nonzero"/></clipPath><clipPath id="e7fa80506d"><path d="M 708 45 L 809.496094 45 L 809.496094 601.5 L 708 601.5 Z M 708 45 " clip-rule="nonzero"/></clipPath><clipPath id="ca32e20d23"><path d="M 0.65625 56.179688 L 0.65625 545.320312 C 0.65625 576.347656 25.808594 601.5 56.835938 601.5 L 753.160156 601.5 C 784.1875 601.5 809.339844 576.347656 809.339844 545.320312 L 809.339844 56.179688 C 809.339844 25.152344 784.1875 0 753.160156 0 L 56.835938 0 C 25.808594 0 0.65625 25.152344 0.65625 56.179688 Z M 0.65625 56.179688 " clip-rule="nonzero"/></clipPath><clipPath id="81682eb9d5"><path d="M 0.65625 0 L 809.496094 0 L 809.496094 601.5 L 0.65625 601.5 Z M 0.65625 0 " clip-rule="nonzero"/></clipPath><clipPath id="0d86a8d590"><path d="M 0.65625 56.179688 L 0.65625 545.320312 C 0.65625 576.347656 25.808594 601.5 56.835938 601.5 L 753.160156 601.5 C 784.1875 601.5 809.339844 576.347656 809.339844 545.320312 L 809.339844 56.179688 C 809.339844 25.152344 784.1875 0 753.160156 0 L 56.835938 0 C 25.808594 0 0.65625 25.152344 0.65625 56.179688 Z M 0.65625 56.179688 " clip-rule="nonzero"/></clipPath></defs><g clip-path="url(#faae667e83)"><g clip-path="url(#6bcfb2471a)"><path fill="#ffffff" d="M 5.066406 -273.960938 L 805.222656 -273.960938 C 808.027344 -273.960938 810.832031 -273.890625 813.632812 -273.753906 C 816.4375 -273.617188 819.234375 -273.410156 822.027344 -273.136719 C 824.820312 -272.859375 827.605469 -272.515625 830.378906 -272.105469 C 833.15625 -271.695312 835.917969 -271.214844 838.671875 -270.667969 C 841.425781 -270.117188 844.160156 -269.503906 846.882812 -268.824219 C 849.605469 -268.140625 852.308594 -267.394531 854.992188 -266.578125 C 857.679688 -265.761719 860.34375 -264.882812 862.984375 -263.9375 C 865.628906 -262.992188 868.246094 -261.984375 870.835938 -260.910156 C 873.429688 -259.835938 875.992188 -258.699219 878.53125 -257.5 C 881.066406 -256.300781 883.574219 -255.039062 886.046875 -253.714844 C 888.523438 -252.390625 890.964844 -251.007812 893.371094 -249.566406 C 895.777344 -248.125 898.148438 -246.625 900.480469 -245.066406 C 902.8125 -243.503906 905.105469 -241.890625 907.359375 -240.21875 C 909.613281 -238.546875 911.828125 -236.820312 913.996094 -235.042969 C 916.164062 -233.261719 918.289062 -231.429688 920.367188 -229.542969 C 922.445312 -227.660156 924.480469 -225.726562 926.464844 -223.742188 C 928.445312 -221.757812 930.382812 -219.726562 932.265625 -217.644531 C 934.148438 -215.566406 935.984375 -213.441406 937.761719 -211.273438 C 939.542969 -209.105469 941.269531 -206.894531 942.941406 -204.640625 C 944.613281 -202.386719 946.226562 -200.089844 947.785156 -197.757812 C 949.34375 -195.425781 950.847656 -193.054688 952.289062 -190.648438 C 953.730469 -188.242188 955.113281 -185.800781 956.4375 -183.324219 C 957.757812 -180.851562 959.019531 -178.34375 960.21875 -175.808594 C 961.421875 -173.273438 962.558594 -170.707031 963.632812 -168.113281 C 964.703125 -165.523438 965.714844 -162.90625 966.660156 -160.261719 C 967.605469 -157.621094 968.484375 -154.957031 969.300781 -152.273438 C 970.113281 -149.585938 970.863281 -146.882812 971.542969 -144.160156 C 972.226562 -141.4375 972.839844 -138.703125 973.386719 -135.949219 C 973.9375 -133.199219 974.414062 -130.433594 974.828125 -127.660156 C 975.238281 -124.882812 975.582031 -122.097656 975.855469 -119.304688 C 976.132812 -116.511719 976.339844 -113.714844 976.476562 -110.914062 C 976.613281 -108.109375 976.683594 -105.304688 976.683594 -102.5 L 976.683594 697.652344 C 976.683594 700.460938 976.613281 703.265625 976.476562 706.066406 C 976.339844 708.871094 976.132812 711.667969 975.855469 714.460938 C 975.582031 717.253906 975.238281 720.035156 974.828125 722.8125 C 974.414062 725.589844 973.9375 728.351562 973.386719 731.105469 C 972.839844 733.855469 972.226562 736.59375 971.542969 739.316406 C 970.863281 742.039062 970.113281 744.742188 969.300781 747.425781 C 968.484375 750.113281 967.605469 752.777344 966.660156 755.417969 C 965.714844 758.058594 964.703125 760.675781 963.632812 763.269531 C 962.558594 765.863281 961.421875 768.425781 960.21875 770.964844 C 959.019531 773.5 957.757812 776.003906 956.4375 778.480469 C 955.113281 780.953125 953.730469 783.394531 952.289062 785.800781 C 950.847656 788.210938 949.34375 790.578125 947.785156 792.914062 C 946.226562 795.246094 944.613281 797.539062 942.941406 799.792969 C 941.269531 802.046875 939.542969 804.257812 937.761719 806.429688 C 935.984375 808.597656 934.148438 810.722656 932.265625 812.800781 C 930.382812 814.878906 928.445312 816.910156 926.464844 818.894531 C 924.480469 820.878906 922.445312 822.8125 920.367188 824.699219 C 918.289062 826.582031 916.164062 828.414062 913.996094 830.195312 C 911.828125 831.976562 909.613281 833.703125 907.359375 835.371094 C 905.105469 837.042969 902.8125 838.660156 900.480469 840.21875 C 898.148438 841.777344 895.777344 843.277344 893.371094 844.722656 C 890.964844 846.164062 888.523438 847.546875 886.046875 848.871094 C 883.574219 850.191406 881.066406 851.453125 878.53125 852.652344 C 875.992188 853.851562 873.429688 854.988281 870.835938 856.0625 C 868.246094 857.136719 865.628906 858.148438 862.984375 859.09375 C 860.34375 860.039062 857.679688 860.917969 854.992188 861.730469 C 852.308594 862.546875 849.605469 863.296875 846.882812 863.976562 C 844.160156 864.660156 841.425781 865.273438 838.671875 865.820312 C 835.917969 866.367188 833.15625 866.847656 830.378906 867.257812 C 827.605469 867.671875 824.820312 868.015625 822.027344 868.289062 C 819.234375 868.566406 816.4375 868.769531 813.632812 868.910156 C 810.832031 869.046875 808.027344 869.117188 805.222656 869.117188 L 5.066406 869.117188 C 2.261719 869.117188 -0.542969 869.046875 -3.34375 868.910156 C -6.148438 868.769531 -8.945312 868.566406 -11.738281 868.289062 C -14.53125 868.015625 -17.316406 867.671875 -20.089844 867.257812 C -22.867188 866.847656 -25.628906 866.367188 -28.382812 865.820312 C -31.136719 865.273438 -33.871094 864.660156 -36.59375 863.976562 C -39.316406 863.296875 -42.019531 862.546875 -44.703125 861.730469 C -47.390625 860.917969 -50.054688 860.039062 -52.695312 859.09375 C -55.335938 858.148438 -57.957031 857.136719 -60.546875 856.0625 C -63.140625 854.988281 -65.703125 853.851562 -68.242188 852.652344 C -70.777344 851.453125 -73.285156 850.191406 -75.757812 848.871094 C -78.234375 847.546875 -80.675781 846.164062 -83.082031 844.722656 C -85.488281 843.277344 -87.859375 841.777344 -90.191406 840.21875 C -92.523438 838.660156 -94.816406 837.042969 -97.070312 835.371094 C -99.324219 833.703125 -101.535156 831.976562 -103.707031 830.195312 C -105.875 828.414062 -108 826.582031 -110.078125 824.699219 C -112.15625 822.8125 -114.191406 820.878906 -116.171875 818.894531 C -118.15625 816.910156 -120.09375 814.878906 -121.976562 812.800781 C -123.859375 810.722656 -125.695312 808.597656 -127.472656 806.429688 C -129.253906 804.257812 -130.980469 802.046875 -132.652344 799.792969 C -134.324219 797.539062 -135.9375 795.246094 -137.496094 792.914062 C -139.054688 790.578125 -140.558594 788.210938 -142 785.800781 C -143.441406 783.394531 -144.824219 780.953125 -146.148438 778.480469 C -147.46875 776.003906 -148.730469 773.5 -149.929688 770.964844 C -151.132812 768.425781 -152.269531 765.863281 -153.34375 763.269531 C -154.414062 760.675781 -155.425781 758.058594 -156.371094 755.417969 C -157.316406 752.777344 -158.195312 750.113281 -159.011719 747.425781 C -159.824219 744.742188 -160.574219 742.039062 -161.253906 739.316406 C -161.9375 736.59375 -162.550781 733.855469 -163.097656 731.105469 C -163.644531 728.351562 -164.125 725.589844 -164.539062 722.8125 C -164.949219 720.035156 -165.292969 717.253906 -165.566406 714.460938 C -165.84375 711.667969 -166.050781 708.871094 -166.1875 706.066406 C -166.324219 703.265625 -166.394531 700.460938 -166.394531 697.652344 L -166.394531 -102.5 C -166.394531 -105.304688 -166.324219 -108.109375 -166.1875 -110.914062 C -166.050781 -113.714844 -165.84375 -116.511719 -165.566406 -119.304688 C -165.292969 -122.097656 -164.949219 -124.882812 -164.539062 -127.660156 C -164.125 -130.433594 -163.644531 -133.199219 -163.097656 -135.949219 C -162.550781 -138.703125 -161.9375 -141.4375 -161.253906 -144.160156 C -160.574219 -146.882812 -159.824219 -149.585938 -159.011719 -152.273438 C -158.195312 -154.957031 -157.316406 -157.621094 -156.371094 -160.261719 C -155.425781 -162.90625 -154.414062 -165.523438 -153.34375 -168.113281 C -152.269531 -170.707031 -151.132812 -173.273438 -149.929688 -175.808594 C -148.730469 -178.34375 -147.46875 -180.851562 -146.148438 -183.324219 C -144.824219 -185.800781 -143.441406 -188.242188 -142 -190.648438 C -140.558594 -193.054688 -139.054688 -195.425781 -137.496094 -197.757812 C -135.9375 -200.089844 -134.324219 -202.386719 -132.652344 -204.640625 C -130.980469 -206.894531 -129.253906 -209.105469 -127.472656 -211.273438 C -125.695312 -213.441406 -123.859375 -215.566406 -121.976562 -217.644531 C -120.09375 -219.726562 -118.15625 -221.757812 -116.171875 -223.742188 C -114.191406 -225.726562 -112.15625 -227.660156 -110.078125 -229.542969 C -108 -231.429688 -105.875 -233.261719 -103.707031 -235.042969 C -101.535156 -236.820312 -99.324219 -238.546875 -97.070312 -240.21875 C -94.816406 -241.890625 -92.523438 -243.503906 -90.191406 -245.066406 C -87.859375 -246.625 -85.488281 -248.125 -83.082031 -249.566406 C -80.675781 -251.007812 -78.234375 -252.390625 -75.757812 -253.714844 C -73.285156 -255.039062 -70.777344 -256.300781 -68.242188 -257.5 C -65.703125 -258.699219 -63.140625 -259.835938 -60.546875 -260.910156 C -57.957031 -261.984375 -55.335938 -262.992188 -52.695312 -263.9375 C -50.054688 -264.882812 -47.390625 -265.761719 -44.703125 -266.578125 C -42.019531 -267.394531 -39.316406 -268.140625 -36.59375 -268.824219 C -33.871094 -269.503906 -31.136719 -270.117188 -28.382812 -270.667969 C -25.628906 -271.214844 -22.867188 -271.695312 -20.089844 -272.105469 C -17.316406 -272.515625 -14.53125 -272.859375 -11.738281 -273.136719 C -8.945312 -273.410156 -6.148438 -273.617188 -3.34375 -273.753906 C -0.542969 -273.890625 2.261719 -273.960938 5.066406 -273.960938 Z M 5.066406 -273.960938 " fill-opacity="1" fill-rule="nonzero"/></g></g><g clip-path="url(#efd13b1bb7)"><g clip-path="url(#5c3ff3c4cf)"><path fill="#f2f2f2" d="M 101.515625 601.207031 L 101.515625 63.324219 L 708.773438 63.324219 L 708.773438 601.207031 " fill-opacity="1" fill-rule="nonzero"/></g></g><g clip-path="url(#57bfd51232)"><g clip-path="url(#c23a3e01e1)"><path fill="#000000" d="M 405.144531 362.320312 L 101.515625 601.207031 L 92.585938 127.902344 " fill-opacity="0.05" fill-rule="nonzero"/></g></g><g clip-path="url(#045ac619b5)"><g clip-path="url(#fa5add04d3)"><path fill="#d54c3f" d="M 101.515625 601.207031 L 50.164062 601.207031 C 23.375 601.207031 1.050781 578.882812 1.050781 549.859375 L 1.050781 45.296875 L 101.515625 45.296875 Z M 101.515625 601.207031 " fill-opacity="1" fill-rule="nonzero"/></g></g><g clip-path="url(#e8af8e54c4)"><g clip-path="url(#7c11929b5a)"><path fill="#000000" d="M 541.332031 601.207031 L 713.238281 601.207031 L 713.238281 81.019531 L 16.675781 81.019531 " fill-opacity="0.08" fill-rule="nonzero"/></g></g><g clip-path="url(#01495e2e3d)"><g clip-path="url(#20a64b9fdd)"><path fill="#f2f2f2" d="M 50.164062 -3.820312 L 760.125 -3.820312 L 405.144531 248.460938 " fill-opacity="1" fill-rule="nonzero"/></g></g><g clip-path="url(#e7fa80506d)"><g clip-path="url(#ca32e20d23)"><path fill="#b63524" d="M 708.773438 601.207031 L 760.125 601.207031 C 786.914062 601.207031 809.238281 578.882812 809.238281 549.859375 L 809.238281 45.296875 L 708.773438 45.296875 Z M 708.773438 601.207031 " fill-opacity="1" fill-rule="nonzero"/></g></g><g clip-path="url(#81682eb9d5)"><g clip-path="url(#0d86a8d590)"><path stroke-linecap="round" transform="matrix(2.232571, 0, 0, 2.232571, -166.393593, -273.961115)" fill="none" stroke-linejoin="miter" d="M 96.999209 143.000128 L 255.999935 258.000302 L 415.000662 143.000128 " stroke="#de5145" stroke-width="44" stroke-opacity="1" stroke-miterlimit="4"/></g></g></svg>